<svg width="33" height="30" viewBox="0 0 33 30" fill="none" xmlns="http://www.w3.org/2000/svg">
<path id="Vector" d="M30.3056 0.549519H3.03798C2.73147 0.545685 2.42712 0.596277 2.14231 0.698409C1.85751 0.80054 1.59782 0.952208 1.3781 1.14475C1.15837 1.3373 0.9829 1.56695 0.86171 1.82059C0.74052 2.07422 0.675982 2.34688 0.671783 2.62299V27.4756C0.675982 27.7518 0.74052 28.0244 0.86171 28.278C0.9829 28.5317 1.15837 28.7613 1.3781 28.9539C1.59782 29.1464 1.85751 29.2981 2.14231 29.4002C2.42712 29.5024 2.73147 29.5529 3.03798 29.5491H30.3056C30.6121 29.5529 30.9164 29.5024 31.2013 29.4002C31.4861 29.2981 31.7457 29.1464 31.9655 28.9539C32.1852 28.7613 32.3607 28.5317 32.4819 28.278C32.603 28.0244 32.6676 27.7518 32.6718 27.4756V2.62299C32.6676 2.34688 32.603 2.07422 32.4819 1.82059C32.3607 1.56695 32.1852 1.3373 31.9655 1.14475C31.7457 0.952208 31.4861 0.80054 31.2013 0.698409C30.9164 0.596277 30.6121 0.545685 30.3056 0.549519ZM10.378 24.8222H5.54905V11.7724H10.378V24.8222ZM7.96353 9.94539C7.29756 9.94539 6.65886 9.70708 6.18794 9.28287C5.71703 8.85867 5.45247 8.28333 5.45247 7.68342C5.45247 7.08351 5.71703 6.50817 6.18794 6.08397C6.65886 5.65977 7.29756 5.42145 7.96353 5.42145C8.31717 5.38532 8.67529 5.41689 9.01444 5.51408C9.35359 5.61127 9.66613 5.7719 9.93159 5.98544C10.1971 6.19898 10.4095 6.46062 10.5549 6.75323C10.7003 7.04584 10.7755 7.36282 10.7755 7.68342C10.7755 8.00402 10.7003 8.321 10.5549 8.61361C10.4095 8.90622 10.1971 9.16786 9.93159 9.3814C9.66613 9.59494 9.35359 9.75557 9.01444 9.85276C8.67529 9.94995 8.31717 9.98151 7.96353 9.94539ZM27.7945 24.8222H22.9655V17.8188C22.9655 16.0643 22.2734 14.9188 20.5189 14.9188C19.9759 14.9224 19.4471 15.0758 19.0039 15.3584C18.5607 15.641 18.2243 16.0392 18.04 16.4993C17.914 16.8401 17.8594 17.199 17.879 17.5578V24.8077H13.0501C13.0501 24.8077 13.0501 12.9468 13.0501 11.7579H17.879V13.5993C18.3177 12.9137 18.9557 12.3488 19.7244 11.9655C20.4931 11.5822 21.3632 11.3952 22.2412 11.4244C25.4605 11.4244 27.7945 13.2948 27.7945 17.3113V24.8222Z" fill="#4098D7"/>
</svg>
