<svg width="55" height="50" viewBox="0 0 55 50" fill="none" xmlns="http://www.w3.org/2000/svg">
<g id="logos:twitter">
<path id="Vector" d="M42.8917 17.3106C41.6862 17.9075 40.4075 18.2993 39.0982 18.4729C40.462 17.5593 41.5092 16.1127 42.0022 14.389C40.7058 15.2488 39.2874 15.8546 37.8083 16.1803C36.6035 14.7457 34.8871 13.8491 32.9873 13.8491C29.3398 13.8491 26.3825 17.1543 26.3825 21.2308C26.3825 21.8094 26.4409 22.3728 26.5535 22.9132C21.0644 22.6052 16.1978 19.6665 12.9402 15.2004C12.3718 16.2906 12.0461 17.5588 12.0461 18.9114C12.0461 21.4725 13.2122 23.7319 14.9843 25.0557C13.9355 25.0191 12.9097 24.7024 11.9927 24.1323C11.9924 24.1632 11.9922 24.1942 11.9923 24.2252C11.9923 27.8018 14.2689 30.7853 17.2902 31.4635C16.3177 31.7591 15.2975 31.8024 14.3077 31.59C15.1481 34.5227 17.5873 36.6568 20.4773 36.7165C18.2169 38.6963 15.369 39.8765 12.2748 39.8765C11.7416 39.8765 11.2159 39.8415 10.6992 39.7733C13.6221 41.8678 17.0937 43.0899 20.8235 43.0899C32.972 43.0899 39.6151 31.8416 39.6151 22.0869C39.6151 21.7667 39.6087 21.4484 39.596 21.1318C40.8889 20.087 42.0049 18.793 42.8917 17.3106Z" fill="#55ACEE"/>
</g>
</svg>
