<svg width="36" height="31" viewBox="0 0 36 31" fill="none" xmlns="http://www.w3.org/2000/svg">
<g id="logos:google-gmail">
<path id="Vector" d="M8.80043 29.9016V14.5269L4.60658 10.1648L0.845856 7.74414V27.1883C0.845856 28.6896 1.91568 29.9016 3.23228 29.9016H8.80043Z" fill="#4285F4"/>
<path id="Vector_2" d="M27.8913 29.9019H33.4594C34.78 29.9019 35.8459 28.6854 35.8459 27.1887V7.74463L31.5862 10.5172L27.8913 14.5273V29.9019Z" fill="#34A853"/>
<path id="Vector_3" d="M8.80043 14.5269L8.22977 8.51961L8.80043 2.77002L18.3459 10.9095L27.8913 2.77002L28.5296 8.20919L27.8913 14.5269L18.3459 22.6664L8.80043 14.5269Z" fill="#EA4335"/>
<path id="Vector_4" d="M27.8913 2.7701V14.527L35.8459 7.74419V4.12663C35.8459 0.771445 32.4771 -1.14125 30.1187 0.870926L27.8913 2.7701Z" fill="#FBBC04"/>
<path id="Vector_5" d="M0.845856 7.74426L4.50431 10.864L8.80043 14.5271V2.77017L6.573 0.870998C4.2105 -1.14133 0.845856 0.771516 0.845856 4.12654V7.74426Z" fill="#C5221F"/>
</g>
</svg>
